<svg xmlns="http://www.w3.org/2000/svg" viewBox="0 0 32 32"><defs><style>.cls-1{fill:currentColor;}</style></defs><title>Brief, briefcase, business, case, portfolio, suitcase</title><g id="_06" data-name="06"><path class="cls-1" d="M29,30H3a1,1,0,0,1-1-1V11a1,1,0,0,1,1-1H29a1,1,0,0,1,1,1V29A1,1,0,0,1,29,30ZM4,28H28V12H4Z"/><path class="cls-1" d="M22,12H10a1,1,0,0,1-1-1V9.52A5.53,5.53,0,0,1,14.52,4h3A5.53,5.53,0,0,1,23,9.52V11A1,1,0,0,1,22,12ZM11,10H21V9.52A3.53,3.53,0,0,0,17.48,6h-3A3.53,3.53,0,0,0,11,9.52Z"/><path class="cls-1" d="M16,22a1,1,0,0,1-.38-.08C10,19.59,3.75,17.11,2.94,17L3,15c1,0,7.53,2.64,13,4.92l12.63-4.85.72,1.86-13,5A.92.92,0,0,1,16,22Z"/></g></svg>